<?xml version="1.0" encoding="utf-8"?>
<!-- Generator: Adobe Illustrator 19.1.0, SVG Export Plug-In . SVG Version: 6.00 Build 0)  -->
<svg version="1.1" id="Layer_1" xmlns="http://www.w3.org/2000/svg" xmlns:xlink="http://www.w3.org/1999/xlink" x="0px" y="0px"
	 viewBox="0 0 2138 216" enable-background="new 0 0 2138 216" xml:space="preserve">
<g>
	<path stroke="#000000" stroke-miterlimit="10" d="M140.706,0.206c0,0.101,0.002,4.61,0.002,4.711c0,20.494,0,81.977,0,81.977
		h43.973V4.917c0-2.512,0.015-4.545,0.015-4.711h67.828c0,0,0,2.199,0,4.711v211.289c0,0-1.885,0-4.711,0h-58.734
		c-2.513,0-4.397,0-4.397,0v-74.032h-44.107v74.032c0,0-1.884,0-4.711,0c-9.167,0-17.833,0-27,0v-18h-18c0-5.75,0-12.25,0-18
		c-6,0-12,0-18,0v-9c0-60.124,0-92.876,0-153c6,0,12,0,18,0c0-6,0-12,0-18 M54.862,198.206h-18v-18h18V198.206z M18.862,216.206h-18
		v-18h18V216.206z M63.862,18.206h-18v-18h18V18.206z M81.862,216.206h-18v-18h18V216.206z"/>
	<path stroke="#000000" stroke-miterlimit="10" d="M368.939,216.206c-64.246,0-107.077-42.47-107.077-107.319
		C261.862,43.434,304.693,0,368.939,0s107.077,43.434,107.077,108.887C476.016,173.736,433.185,216.206,368.939,216.206z
		 M368.939,60.928c-24.733,0-41.322,19.304-41.322,47.959c0,28.654,16.589,47.958,41.322,47.958s41.323-19.304,41.323-47.958
		C410.262,80.232,393.672,60.928,368.939,60.928z"/>
	<path stroke="#000000" stroke-miterlimit="10" d="M593.939,216.206c-64.246,0-107.077-42.47-107.077-107.319
		C486.862,43.434,529.693,0,593.939,0s107.077,43.434,107.077,108.887C701.016,173.736,658.185,216.206,593.939,216.206z
		 M593.939,60.928c-24.733,0-41.322,19.304-41.322,47.959c0,28.654,16.589,47.958,41.322,47.958s41.323-19.304,41.323-47.958
		C635.262,80.232,618.672,60.928,593.939,60.928z"/>
	<path stroke="#000000" stroke-miterlimit="10" d="M789.127,0.206C855.714,0.206,900,43.236,900,108.567
		c0,64.702-44.286,107.64-110.873,107.64h-77.265c0,0,0-1.478,0-3.991V4.917c0-2.512,0-4.711,0-4.711H789.127z M792.897,160.391
		c24.184,0,40.517-20.73,40.517-51.824c0-31.095-16.333-51.825-40.517-51.825h-16.333v103.649H792.897z"/>
</g>
<g>
	<path fill="#E57E25" d="M1029.39,10.967l65.037,183.181c0.396,1.193,1.193,1.79,2.387,1.79h10.442c1.986,0,2.983,0.997,2.983,2.983
		v8.95c0,1.991-0.997,2.983-2.983,2.983h-49.226c-1.991,0-2.983-0.993-2.983-2.983v-8.95c0-1.986,0.992-2.983,2.983-2.983h16.706
		c1.59,0,2.089-0.695,1.492-2.088l-15.514-43.856h-82.938l-15.514,43.856c-0.597,1.393-0.102,2.088,1.492,2.088h16.707
		c1.985,0,2.983,0.997,2.983,2.983v8.95c0,1.991-0.998,2.983-2.983,2.983h-49.227c-1.99,0-2.983-0.993-2.983-2.983v-8.95
		c0-1.986,0.993-2.983,2.983-2.983h10.741c1.193,0,1.985-0.597,2.387-1.79l65.634-183.181c0.597-1.986,1.79-2.983,3.58-2.983h12.232
		C1027.599,7.984,1028.793,8.981,1029.39,10.967z M983.445,133.883h71.602l-35.205-100.54h-0.597L983.445,133.883z"/>
	<path fill="#E57E25" d="M1215.629,9.326c9.845,2.886,18.147,6.913,24.912,12.083c0.992,0.797,1.64,1.492,1.939,2.088
		c0.298,0.597,0.448,1.492,0.448,2.685v31.326c0,1.99-0.998,2.983-2.983,2.983H1229.8c-1.99,0-2.983-0.993-2.983-2.983V35.133
		c0-1.193-0.499-2.187-1.492-2.983c-4.577-3.179-10.395-5.818-17.452-7.906c-7.063-2.089-15.066-3.133-24.017-3.133
		c-27.251,0-44.75,11.337-52.508,34.01c-1.594,4.974-2.885,11.44-3.878,19.392c-0.998,7.957-1.492,19.592-1.492,34.906
		c0,15.714,0.396,27.55,1.193,35.502c0.792,7.957,1.985,14.32,3.58,19.093c3.776,11.141,10.041,19.541,18.795,25.21
		c8.75,5.668,20.385,8.503,34.906,8.503c8.951,0,16.954-0.844,24.017-2.536c7.057-1.688,12.679-4.028,16.855-7.011
		c0.993-0.597,1.492-1.589,1.492-2.983v-23.271c0-1.986,0.993-2.983,2.983-2.983h10.144c1.985,0,2.983,0.997,2.983,2.983v31.624
		c0,1.99-0.7,3.58-2.089,4.773c-6.563,4.773-14.768,8.554-24.613,11.337c-9.845,2.783-20.735,4.177-32.668,4.177
		c-18.497,0-33.466-3.626-44.9-10.889c-11.44-7.258-19.644-18.446-24.614-33.563c-1.79-5.566-3.132-12.777-4.027-21.63
		c-0.896-8.847-1.343-21.63-1.343-38.336c0-16.306,0.494-28.687,1.492-37.144c0.993-8.451,2.484-15.662,4.475-21.63
		c4.969-15.113,13.224-26.501,24.762-34.16C1150.936,8.832,1165.457,5,1182.961,5C1194.894,5,1205.784,6.445,1215.629,9.326z"/>
	<path fill="#E57E25" d="M1364.232,9.326c9.845,2.886,18.147,6.913,24.911,12.083c0.992,0.797,1.64,1.492,1.939,2.088
		c0.298,0.597,0.448,1.492,0.448,2.685v31.326c0,1.99-0.998,2.983-2.983,2.983h-10.144c-1.99,0-2.983-0.993-2.983-2.983V35.133
		c0-1.193-0.499-2.187-1.492-2.983c-4.577-3.179-10.395-5.818-17.452-7.906c-7.063-2.089-15.066-3.133-24.017-3.133
		c-27.251,0-44.75,11.337-52.508,34.01c-1.594,4.974-2.885,11.44-3.878,19.392c-0.998,7.957-1.492,19.592-1.492,34.906
		c0,15.714,0.396,27.55,1.193,35.502c0.792,7.957,1.985,14.32,3.58,19.093c3.776,11.141,10.041,19.541,18.795,25.21
		c8.75,5.668,20.385,8.503,34.906,8.503c8.951,0,16.954-0.844,24.017-2.536c7.057-1.688,12.679-4.028,16.855-7.011
		c0.993-0.597,1.492-1.589,1.492-2.983v-23.271c0-1.986,0.993-2.983,2.983-2.983h10.144c1.985,0,2.983,0.997,2.983,2.983v31.624
		c0,1.99-0.7,3.58-2.089,4.773c-6.563,4.773-14.768,8.554-24.613,11.337c-9.845,2.783-20.735,4.177-32.668,4.177
		c-18.497,0-33.466-3.626-44.9-10.889c-11.44-7.258-19.644-18.446-24.614-33.563c-1.79-5.566-3.132-12.777-4.027-21.63
		c-0.896-8.847-1.343-21.63-1.343-38.336c0-16.306,0.494-28.687,1.492-37.144c0.993-8.451,2.484-15.662,4.475-21.63
		c4.969-15.113,13.224-26.501,24.762-34.16C1299.539,8.832,1314.06,5,1331.564,5C1343.497,5,1354.387,6.445,1364.232,9.326z"/>
	<path fill="#E57E25" d="M1518.768,16.635c11.039,7.757,19.043,19.094,24.016,34.011c1.986,5.967,3.478,13.178,4.475,21.63
		c0.993,8.456,1.492,20.837,1.492,37.144c0,16.311-0.499,28.692-1.492,37.143c-0.998,8.456-2.489,15.663-4.475,21.63
		c-4.973,14.917-12.978,26.254-24.016,34.01c-11.039,7.757-24.814,11.635-41.32,11.635c-16.511,0-30.333-3.878-41.469-11.635
		c-11.141-7.757-19.196-19.093-24.165-34.01c-1.991-5.967-3.482-13.174-4.475-21.63c-0.998-8.451-1.492-20.832-1.492-37.143
		c0-16.306,0.494-28.687,1.492-37.144c0.993-8.451,2.484-15.662,4.475-21.63c4.969-14.917,13.024-26.254,24.165-34.011
		C1447.115,8.879,1460.937,5,1477.448,5C1493.954,5,1507.729,8.879,1518.768,16.635z M1428.222,55.419
		c-3.384,10.144-5.072,28.147-5.072,54c0,25.858,1.688,43.856,5.072,53.999c7.556,22.874,23.965,34.309,49.226,34.309
		c25.061,0,41.367-11.435,48.928-34.309c3.38-10.144,5.072-28.142,5.072-53.999c0-25.853-1.692-43.856-5.072-54
		c-7.561-22.869-23.867-34.309-48.928-34.309C1452.187,21.111,1435.779,32.55,1428.222,55.419z"/>
	<path fill="#E57E25" d="M1731.753,10.967v8.95c0,1.99-0.998,2.983-2.983,2.983h-17.304c-1.193,0-1.79,0.597-1.79,1.79v116.054
		c0,23.672-5.967,41.768-17.9,54.298c-11.934,12.53-28.744,18.795-50.42,18.795c-21.481,0-38.188-6.214-50.121-18.646
		c-11.934-12.427-17.901-30.58-17.901-54.447V24.691c0-1.193-0.597-1.79-1.79-1.79h-17.304c-1.99,0-2.983-0.993-2.983-2.983v-8.95
		c0-1.986,0.993-2.983,2.983-2.983h55.492c1.985,0,2.983,0.997,2.983,2.983v8.95c0,1.99-0.998,2.983-2.983,2.983h-17.602
		c-1.194,0-1.791,0.597-1.791,1.79v116.054c0,18.698,4.424,32.869,13.276,42.513c8.848,9.649,21.429,14.47,37.74,14.47
		c16.506,0,29.186-4.82,38.038-14.47c8.847-9.645,13.276-23.816,13.276-42.513V24.691c0-1.193-0.597-1.79-1.79-1.79h-17.602
		c-1.991,0-2.983-0.993-2.983-2.983v-8.95c0-1.986,0.992-2.983,2.983-2.983h55.491C1730.755,7.984,1731.753,8.981,1731.753,10.967z"
		/>
	<path fill="#E57E25" d="M1929.252,10.967v8.95c0,1.99-0.998,2.983-2.983,2.983h-17.901c-1.193,0-1.79,0.597-1.79,1.79v183.181
		c0,1.991-0.998,2.983-2.983,2.983h-11.635c-2.191,0-3.879-0.993-5.072-2.983l-98.75-167.369h-0.896v153.645
		c0,1.193,0.597,1.79,1.79,1.79h17.901c1.985,0,2.983,0.997,2.983,2.983v8.95c0,1.991-0.998,2.983-2.983,2.983h-56.386
		c-1.99,0-2.983-0.993-2.983-2.983v-8.95c0-1.986,0.993-2.983,2.983-2.983h17.901c1.193,0,1.79-0.597,1.79-1.79V24.691
		c0-1.193-0.597-1.79-1.79-1.79h-17.901c-1.99,0-2.983-0.993-2.983-2.983v-8.95c0-1.986,0.993-2.983,2.983-2.983h33.713
		c2.387,0,4.074,0.997,5.072,2.983l99.049,166.772h1.193V24.691c0-1.193-0.597-1.79-1.79-1.79h-17.901
		c-1.99,0-2.983-0.993-2.983-2.983v-8.95c0-1.986,0.993-2.983,2.983-2.983h56.386C1928.255,7.984,1929.252,8.981,1929.252,10.967z"
		/>
	<path fill="#E57E25" d="M2099.602,10.967v35.204c0,1.991-0.998,2.983-2.984,2.983h-10.143c-1.99,0-2.983-0.993-2.983-2.983V25.586
		c0-1.193-0.596-1.79-1.79-1.79h-49.823c-1.193,0-1.79,0.597-1.79,1.79v168.562c0,1.193,0.597,1.79,1.79,1.79h18.796
		c1.985,0,2.983,0.997,2.983,2.983v8.95c0,1.991-0.998,2.983-2.983,2.983h-58.177c-1.991,0-2.983-0.993-2.983-2.983v-8.95
		c0-1.986,0.992-2.983,2.983-2.983h18.795c1.193,0,1.79-0.597,1.79-1.79V25.586c0-1.193-0.597-1.79-1.79-1.79h-49.822
		c-1.194,0-1.791,0.597-1.791,1.79v20.586c0,1.991-0.997,2.983-2.983,2.983h-10.143c-1.99,0-2.983-0.993-2.983-2.983V10.967
		c0-1.986,0.993-2.983,2.983-2.983h150.064C2098.604,7.984,2099.602,8.981,2099.602,10.967z"/>
</g>
</svg>
