<svg xmlns="http://www.w3.org/2000/svg" viewBox="771 312.9 916.6 216"><path d="M921.8 313v86.7h44V313h67.8v216h-67.8v-74h-44.1v74H890v-18h-18v-18h-18V331h18v-18m-36 198h-18v-18h18v18zm-36 18h-18v-18h18v18zm45-198h-18v-18h18v18zm18 198h-18v-18h18v18zm286.9 0c-64.2 0-107.1-42.5-107.1-107.3 0-65.5 42.8-108.9 107.1-108.9 64.2 0 107.1 43.4 107.1 108.9.1 64.8-42.7 107.3-107.1 107.3zm0-155.3c-24.7 0-41.3 19.3-41.3 48s16.6 48 41.3 48 41.3-19.3 41.3-48c.2-28.7-16.4-48-41.3-48zm225 155.3c-64.2 0-107.1-42.5-107.1-107.3 0-65.5 42.8-108.9 107.1-108.9 64.2 0 107.1 43.4 107.1 108.9.1 64.8-42.7 107.3-107.1 107.3zm0-155.3c-24.7 0-41.3 19.3-41.3 48s16.6 48 41.3 48 41.3-19.3 41.3-48c.2-28.7-16.4-48-41.3-48zm195.2-60.7c66.6 0 110.9 43 110.9 108.4 0 64.7-44.3 107.6-110.9 107.6h-77.3V313h77.3zm3.8 160.2c24.2 0 40.5-20.7 40.5-51.8s-16.3-51.8-40.5-51.8h-16.3v103.6h16.3z" stroke="#000000,stroke-miterlimit:10,"/></svg>