<?xml version="1.0" encoding="utf-8"?>
<!-- Generator: Adobe Illustrator 19.1.0, SVG Export Plug-In . SVG Version: 6.00 Build 0)  -->
<svg version="1.1" id="Layer_1" xmlns="http://www.w3.org/2000/svg" xmlns:xlink="http://www.w3.org/1999/xlink" x="0px" y="0px"
	 viewBox="771 312.9 2138 216" style="enable-background:new 771 312.9 2138 216," xml:space="preserve">
<style type="text/css">
	.st0{stroke:#000000,stroke-miterlimit:10,}
	.st1{fill:#EF3C39,}
	.st2{fill:#818991,}
</style>
<g>
	<path class="st0" d="M921.8,313c0,0.1,0,4.6,0,4.7c0,20.5,0,82,0,82h44v-82c0-2.5,0-4.5,0-4.7h67.8c0,0,0,2.2,0,4.7V529
		c0,0-1.9,0-4.7,0h-58.7c-2.5,0-4.4,0-4.4,0v-74h-44.1v74c0,0-1.9,0-4.7,0c-9.2,0-17.8,0-27,0v-18h-18c0-5.8,0-12.3,0-18
		c-6,0-12,0-18,0v-9c0-60.1,0-92.9,0-153c6,0,12,0,18,0c0-6,0-12,0-18 M836,511h-18v-18h18V511z M800,529h-18v-18h18V529z M845,331
		h-18v-18h18V331z M863,529h-18v-18h18V529z"/>
	<path class="st0" d="M1149.9,529c-64.2,0-107.1-42.5-107.1-107.3c0-65.5,42.8-108.9,107.1-108.9c64.2,0,107.1,43.4,107.1,108.9
		C1257.1,486.5,1214.3,529,1149.9,529z M1149.9,373.7c-24.7,0-41.3,19.3-41.3,48s16.6,48,41.3,48s41.3-19.3,41.3-48
		C1191.4,393,1174.8,373.7,1149.9,373.7z"/>
	<path class="st0" d="M1374.9,529c-64.2,0-107.1-42.5-107.1-107.3c0-65.5,42.8-108.9,107.1-108.9c64.2,0,107.1,43.4,107.1,108.9
		C1482.1,486.5,1439.3,529,1374.9,529z M1374.9,373.7c-24.7,0-41.3,19.3-41.3,48s16.6,48,41.3,48s41.3-19.3,41.3-48
		C1416.4,393,1399.8,373.7,1374.9,373.7z"/>
	<path class="st0" d="M1570.1,313c66.6,0,110.9,43,110.9,108.4c0,64.7-44.3,107.6-110.9,107.6h-77.3c0,0,0-1.5,0-4V317.7
		c0-2.5,0-4.7,0-4.7L1570.1,313z M1573.9,473.2c24.2,0,40.5-20.7,40.5-51.8s-16.3-51.8-40.5-51.8h-16.3v103.6L1573.9,473.2
		L1573.9,473.2z"/>
</g>
<g>
	<path class="st1" d="M1864.1,331.8c1.6,1,2.4,2.4,2.4,4.2v40.8c0,2-1,3-3,3h-27.2c-2,0-3-1-3-3V356c0-1.2-0.5-2-1.5-2.4
		c-3.2-1.6-7.2-2.9-11.9-3.9c-4.7-1-9.5-1.5-14.3-1.5c-12.1,0-21.3,2.3-27.8,6.8c-6.4,4.5-11.2,11.3-14.2,20.4
		c-1.4,4.6-2.4,10-3,16.2c-0.6,6.1-0.9,16.4-0.9,30.7c0,14.7,0.3,25.1,0.8,31.1c0.5,6,1.5,11.3,2.9,15.7c3,9.1,7.7,15.9,14,20.4
		c6.3,4.5,15.8,6.8,28.2,6.8c10.3,0,19-1.6,26.3-4.8c1-0.6,1.5-1.4,1.5-2.4v-21.7c0-2,1-3,3-3h27.2c2,0,3,1,3,3v41.1
		c0,1.8-0.8,3.2-2.4,4.2c-16.9,10.5-37.5,15.7-61.9,15.7c-39.3,0-63.9-16.1-74-48.3c-2-6-3.3-12.9-3.9-20.5
		c-0.6-7.6-0.9-20-0.9-37.1c0-16.5,0.3-28.4,1.1-35.6c0.7-7.2,2.1-14,4.1-20.2c5.2-16.5,14.2-29,26.9-37.4
		c12.7-8.5,28.4-12.7,47.1-12.7C1827.6,316.1,1848.2,321.3,1864.1,331.8z"/>
	<path class="st1" d="M2113.8,322.4V346c0,2-1,3-3,3h-14.5c-1.2,0-1.8,0.6-1.8,1.8v142.5c0,1.2,0.6,1.8,1.8,1.8h14.5c2,0,3,1,3,3
		v23.6c0,2-1,3-3,3h-64c-2,0-3-1-3-3v-23.6c0-2,1-3,3-3h13.9c1.2,0,1.8-0.6,1.8-1.8v-97.2h-1.2l-43.8,96.6c-1.2,2.6-3.1,3.9-5.7,3.9
		h-17.5c-2.6,0-4.5-1.3-5.7-3.9l-43.8-96.6h-1.2v97.2c0,1.2,0.6,1.8,1.8,1.8h12.7c2,0,3,1,3,3v23.6c0,2-1,3-3,3h-62.8c-2,0-3-1-3-3
		v-23.6c0-2,1-3,3-3h14.5c1.2,0,1.8-0.6,1.8-1.8V350.8c0-1.2-0.6-1.8-1.8-1.8h-14.5c-2,0-3-1-3-3v-23.6c0-2,1-3,3-3h45.3
		c2.6,0,4.3,1,5.1,3l57.4,128h1.2l56.5-128c0.8-2,2.5-3,5.1-3h45C2112.8,319.4,2113.8,320.4,2113.8,322.4z"/>
	<path class="st1" d="M2247.7,320.2c10.8,2.7,20.1,6.2,27.9,10.4c1.4,0.6,2.1,1.8,2.1,3.6v40.2c0,2-1,3-3,3h-26.6c-2,0-3-1-3-3V356
		c0-1.4-0.6-2.3-1.8-2.7c-9.3-3.6-19.3-5.4-30.2-5.4c-11.1,0-19.4,2.4-25.1,7.1c-5.6,4.7-8.5,11.2-8.5,19.5c0,7.9,2.8,14.1,8.3,18.9
		c5.5,4.7,15.1,8,28.8,9.8l10.9,1.5c19.9,2.8,35.1,9.3,45.6,19.3c10.5,10.1,15.7,23.9,15.7,41.4c0,19.1-6.5,34.4-19.6,45.8
		c-13.1,11.4-32,17.1-56.8,17.1s-47.1-5.4-67-16.3c-1.4-0.8-2.1-2-2.1-3.6v-41.1c0-2,1-3,3-3h27.8c2,0,3,1,3,3v20.2
		c0,1,0.5,1.7,1.5,2.1c12.3,4.6,24.2,6.9,35.6,6.9c12.3,0,21.8-2.6,28.5-7.7c6.7-5.1,10.1-12.4,10.1-21.9c0-7.9-2.9-14.2-8.6-19
		c-5.7-4.8-15.4-8.2-28.8-10l-10.9-1.5c-20.1-2.8-35.4-9.1-45.8-18.7c-10.4-9.7-15.6-23.4-15.6-41.1c0-19.1,6.3-34,19-44.5
		c12.7-10.6,30.3-15.9,52.8-15.9C2226.1,316.1,2237,317.5,2247.7,320.2z"/>
	<path class="st2" d="M2399.9,396.5c7.7,5.1,13.1,12.6,16.3,22.5c1.2,3.7,2.1,8.2,2.6,13.4c0.5,5.2,0.8,13.3,0.8,24.4
		c0,11.1-0.3,19.2-0.8,24.4c-0.5,5.2-1.4,9.7-2.6,13.4c-3.2,9.9-8.6,17.4-16.3,22.5c-7.7,5.1-17.4,7.7-29.1,7.7h-60.2
		c-1.3,0-2-0.7-2-2v-15.6c0-1.3,0.7-2,2-2h9.6c0.8,0,1.2-0.4,1.2-1.2v-94.4c0-0.8-0.4-1.2-1.2-1.2h-9.6c-1.3,0-2-0.7-2-2v-15.6
		c0-1.3,0.7-2,2-2h60.2C2382.6,388.8,2392.3,391.3,2399.9,396.5z M2345,411.2v91.2c0,0.8,0.4,1.2,1.2,1.2h19
		c7.6,0,13.7-1.4,18.3-4.1c4.6-2.7,7.9-7.1,9.9-13.1c0.8-2.1,1.4-5.3,1.8-9.6c0.4-4.3,0.6-10.9,0.6-20c0-9.2-0.2-15.9-0.6-20.1
		c-0.4-4.2-1-7.4-1.8-9.5c-2-6-5.3-10.4-9.9-13.1c-4.6-2.7-10.7-4.1-18.3-4.1h-19C2345.4,410,2345,410.4,2345,411.2z"/>
	<path class="st2" d="M2538.2,390.8v31c0,1.3-0.7,2-2,2H2519c-1.3,0-2-0.7-2-2v-11c0-0.8-0.4-1.2-1.2-1.2h-40.6
		c-0.8,0-1.2,0.4-1.2,1.2v33.6c0,0.8,0.4,1.2,1.2,1.2h27.4c0.8,0,1.2-0.4,1.2-1.2v-7.2c0-1.3,0.7-2,2-2h16.6c1.3,0,2,0.7,2,2v37.6
		c0,1.3-0.7,2-2,2h-16.6c-1.3,0-2-0.7-2-2v-7.2c0-0.8-0.4-1.2-1.2-1.2h-27.4c-0.8,0-1.2,0.4-1.2,1.2v35.2c0,0.8,0.4,1.2,1.2,1.2
		h40.6c0.8,0,1.2-0.4,1.2-1.2v-12c0-1.3,0.7-2,2-2h17.2c1.3,0,2,0.7,2,2v32c0,1.3-0.7,2-2,2h-96.6c-1.3,0-2-0.7-2-2v-15.6
		c0-1.3,0.7-2,2-2h9.6c0.8,0,1.2-0.4,1.2-1.2v-94.4c0-0.8-0.4-1.2-1.2-1.2h-9.6c-1.3,0-2-0.7-2-2v-15.6c0-1.3,0.7-2,2-2h96.6
		C2537.6,388.8,2538.2,389.4,2538.2,390.8z"/>
	<path class="st2" d="M2701.8,390.8v15.6c0,1.3-0.7,2-2,2h-9.6c-0.8,0-1.2,0.4-1.2,1.2V504c0,0.8,0.4,1.2,1.2,1.2h9.6
		c1.3,0,2,0.7,2,2v15.6c0,1.3-0.7,2-2,2h-42.4c-1.3,0-2-0.7-2-2v-15.6c0-1.3,0.7-2,2-2h9.2c0.8,0,1.2-0.4,1.2-1.2v-64.4h-0.8l-29,64
		c-0.8,1.7-2.1,2.6-3.8,2.6h-11.6c-1.7,0-3-0.9-3.8-2.6l-29-64h-0.8V504c0,0.8,0.4,1.2,1.2,1.2h8.4c1.3,0,2,0.7,2,2v15.6
		c0,1.3-0.7,2-2,2H2557c-1.3,0-2-0.7-2-2v-15.6c0-1.3,0.7-2,2-2h9.6c0.8,0,1.2-0.4,1.2-1.2v-94.4c0-0.8-0.4-1.2-1.2-1.2h-9.6
		c-1.3,0-2-0.7-2-2v-15.6c0-1.3,0.7-2,2-2h30c1.7,0,2.9,0.7,3.4,2l38,84.8h0.8l37.4-84.8c0.5-1.3,1.7-2,3.4-2h29.8
		C2701.2,388.8,2701.8,389.4,2701.8,390.8z"/>
	<path class="st2" d="M2801.5,395c8.3,5.6,14.2,13.7,17.7,24.4c1.5,4.3,2.4,8.9,2.9,13.9c0.5,5,0.7,12.8,0.7,23.5
		c0,10.7-0.2,18.5-0.7,23.5c-0.5,5-1.4,9.6-2.9,13.9c-3.5,10.7-9.4,18.8-17.7,24.4c-8.3,5.6-18.5,8.4-30.5,8.4
		c-11.9,0-22-2.8-30.3-8.4c-8.3-5.6-14.2-13.7-17.7-24.4c-1.5-4.3-2.4-8.9-2.9-13.9c-0.5-5-0.7-12.8-0.7-23.5
		c0-10.7,0.2-18.5,0.7-23.5c0.5-5,1.4-9.6,2.9-13.9c3.5-10.7,9.4-18.8,17.7-24.4c8.3-5.6,18.4-8.4,30.3-8.4
		C2783,386.6,2793.2,389.4,2801.5,395z M2745.8,425.6c-0.8,2.7-1.4,6.2-1.8,10.7c-0.4,4.5-0.6,11.3-0.6,20.5s0.2,16,0.6,20.5
		c0.4,4.5,1,8,1.8,10.7c4.1,11.9,12.5,17.8,25.2,17.8c12.8,0,21.3-5.9,25.4-17.8c0.8-2.7,1.4-6.2,1.8-10.7
		c0.4-4.5,0.6-11.3,0.6-20.5s-0.2-16-0.6-20.5c-0.4-4.5-1-8-1.8-10.7c-4.1-11.9-12.6-17.8-25.4-17.8
		C2758.4,407.8,2750,413.7,2745.8,425.6z"/>
</g>
</svg>
