<svg xmlns="http://www.w3.org/2000/svg" viewBox="0 0 899 216"><path d="M139.8.1v86.7h44V.1h67.8v216h-67.8v-74h-44.1v74H108v-18H90v-18H72v-162h18V.1m-36 198H36v-18h18v18zm-36 18H0v-18h18v18zm45-198H45V.1h18v18zm18 198H63v-18h18v18zm286.9 0c-64.2 0-107.1-42.5-107.1-107.3C260.8 43.3 303.6-.1 367.9-.1 432.1-.1 475 43.3 475 108.8c.1 64.8-42.7 107.3-107.1 107.3zm0-155.3c-24.7 0-41.3 19.3-41.3 48s16.6 48 41.3 48c24.7 0 41.3-19.3 41.3-48 .2-28.7-16.4-48-41.3-48zm225 155.3c-64.2 0-107.1-42.5-107.1-107.3C485.8 43.3 528.6-.1 592.9-.1 657.1-.1 700 43.3 700 108.8c.1 64.8-42.7 107.3-107.1 107.3zm0-155.3c-24.7 0-41.3 19.3-41.3 48s16.6 48 41.3 48 41.3-19.3 41.3-48c.2-28.7-16.4-48-41.3-48zM788.1.1C854.7.1 899 43.1 899 108.5c0 64.7-44.3 107.6-110.9 107.6h-77.3V.1h77.3zm3.8 160.2c24.2 0 40.5-20.7 40.5-51.8s-16.3-51.8-40.5-51.8h-16.3v103.6h16.3z" fill="#fff"/></svg>