<svg xmlns="http://www.w3.org/2000/svg" viewBox="0 0 927 216"><path d="M140.706.206l.002 4.711v81.977h43.973V4.917c0-2.512.015-4.545.015-4.711h67.828v216h-67.842v-74.032h-44.107v74.032h-31.711v-18h-18v-18h-18v-162h18v-18m-36.002 198h-18v-18h18v18zm-36 18h-18v-18h18v18zm45-198h-18v-18h18v18zm18 198h-18v-18h18v18zm287.077 0c-64.246 0-107.077-42.47-107.077-107.319C261.862 43.434 304.693 0 368.939 0s107.077 43.434 107.077 108.887c0 64.849-42.831 107.319-107.077 107.319zm0-155.278c-24.733 0-41.322 19.304-41.322 47.959 0 28.654 16.589 47.958 41.322 47.958s41.323-19.304 41.323-47.958c0-28.655-16.59-47.959-41.323-47.959zm225 155.278c-64.246 0-107.077-42.47-107.077-107.319C486.862 43.434 529.693 0 593.939 0s107.077 43.434 107.077 108.887c0 64.849-42.831 107.319-107.077 107.319zm0-155.278c-24.733 0-41.322 19.304-41.322 47.959 0 28.654 16.589 47.958 41.322 47.958s41.323-19.304 41.323-47.958c0-28.655-16.59-47.959-41.323-47.959zM789.127.206C855.714.206 900 43.236 900 108.567c0 64.702-44.286 107.64-110.873 107.64h-77.265V.206h77.265zm3.77 160.185c24.184 0 40.517-20.73 40.517-51.824 0-31.095-16.333-51.825-40.517-51.825h-16.333v103.649h16.333z" stroke="#000" stroke-miterlimit="10"/></svg>