<svg xmlns="http://www.w3.org/2000/svg" viewBox="0 0 1006 216"><path d="M139.8.1v86.7h44V.1h67.8v216h-67.8v-74h-44.1v74H108v-18H90v-18H72v-162h18V.1m-36 198H36v-18h18v18zm-36 18H0v-18h18v18zm45-198H45V.1h18v18zm18 198H63v-18h18v18zm286.9 0c-64.2 0-107.1-42.5-107.1-107.3C260.8 43.3 303.6-.1 367.9-.1 432.1-.1 475 43.3 475 108.8c.1 64.8-42.7 107.3-107.1 107.3zm0-155.3c-24.7 0-41.3 19.3-41.3 48s16.6 48 41.3 48c24.7 0 41.3-19.3 41.3-48 .2-28.7-16.4-48-41.3-48zm225 155.3c-64.2 0-107.1-42.5-107.1-107.3C485.8 43.3 528.6-.1 592.9-.1 657.1-.1 700 43.3 700 108.8c.1 64.8-42.7 107.3-107.1 107.3zm0-155.3c-24.7 0-41.3 19.3-41.3 48s16.6 48 41.3 48 41.3-19.3 41.3-48c.2-28.7-16.4-48-41.3-48zM788.1.1C854.7.1 899 43.1 899 108.5c0 64.7-44.3 107.6-110.9 107.6h-77.3V.1h77.3zm3.8 160.2c24.2 0 40.5-20.7 40.5-51.8s-16.3-51.8-40.5-51.8h-16.3v103.6h16.3z"/><path d="M935.4 62.8c-.8.3-1.5-.1-1.9-1-3.9-6.3-6.3-14.7-6.3-22.7C927.2 16.9 942.7 2 966 2s38.8 14.9 38.8 37.1c0 8-2.4 16.4-6.3 22.7-.4.9-1.2 1.3-1.9 1l-15-7.1c-1-.4-1.3-1.2-.9-2 2.3-4 3-7.9 3-12.5 0-9.7-7.1-16.2-17.8-16.2s-17.8 6.5-17.8 16.2c0 4.6.8 8.5 3 12.5.4.9.1 1.6-.9 2l-14.8 7.1zm67.9 89.9c0 .9-.8 1.5-1.6 1.5h-71.3c-.8 0-1.5-.6-1.5-1.5v-20c0-.9.8-1.6 1.5-1.6h31.7l-31.6-10.9c-.9-.3-1.6-1.7-1.6-2.7v-11.9c0-1 .8-2.4 1.6-2.7L962.1 92h-31.7c-.8 0-1.5-.8-1.5-1.6v-20c0-.9.8-1.5 1.5-1.5h71.3c.9 0 1.6.6 1.6 1.5V93c0 1.4-1 3-2.2 3.7l-41.2 14.9 41.2 14.9c1.2.6 2.2 2.3 2.2 3.7v22.5zm-51.8 15.2c1.1.3 1.4 1.1.9 1.9-2.8 5-4.9 10.9-5.2 15 0 3.5 1.6 5.7 4.1 5.7 6.4 0 6-30.3 29.6-30.3 14.5 0 24.1 10.9 24.1 27.3 0 7.7-3.1 17.4-7.8 24.2-.5.9-1.4 1.2-1.9.9l-15.2-6.8c-1.1-.3-1.4-1.1-.9-1.9 3-5.3 5.3-11.4 5.6-15.2 0-3.3-1.5-5.5-3.9-5.5-6.4 0-5.9 30.5-29.7 30.5-14.3 0-23.9-11.1-23.9-27.7 0-9.1 2.8-18.6 7.1-23.9.6-.9 1.4-1.2 1.9-.9l15.2 6.7z" fill="#eab92d"/></svg>