<?xml version="1.0" encoding="utf-8"?>
<!-- Generator: Adobe Illustrator 19.1.0, SVG Export Plug-In . SVG Version: 6.00 Build 0)  -->
<svg version="1.1" id="Layer_1" xmlns="http://www.w3.org/2000/svg" xmlns:xlink="http://www.w3.org/1999/xlink" x="0px" y="0px"
	 viewBox="771 312.9 916.6 216" style="enable-background:new 771 312.9 916.6 216," xml:space="preserve">
<style type="text/css">
	.st0{stroke:#000000,stroke-miterlimit:10,}
</style>
<g>
	<path class="st0" d="M921.8,313c0,0.1,0,4.6,0,4.7c0,20.5,0,82,0,82h44v-82c0-2.5,0-4.5,0-4.7h67.8c0,0,0,2.2,0,4.7V529
		c0,0-1.9,0-4.7,0h-58.7c-2.5,0-4.4,0-4.4,0v-74h-44.1v74c0,0-1.9,0-4.7,0c-9.2,0-17.8,0-27,0v-18h-18c0-5.8,0-12.3,0-18
		c-6,0-12,0-18,0v-9c0-60.1,0-92.9,0-153c6,0,12,0,18,0c0-6,0-12,0-18 M836,511h-18v-18h18V511z M800,529h-18v-18h18V529z M845,331
		h-18v-18h18V331z M863,529h-18v-18h18V529z"/>
	<path class="st0" d="M1149.9,529c-64.2,0-107.1-42.5-107.1-107.3c0-65.5,42.8-108.9,107.1-108.9c64.2,0,107.1,43.4,107.1,108.9
		C1257.1,486.5,1214.3,529,1149.9,529z M1149.9,373.7c-24.7,0-41.3,19.3-41.3,48s16.6,48,41.3,48s41.3-19.3,41.3-48
		C1191.4,393,1174.8,373.7,1149.9,373.7z"/>
	<path class="st0" d="M1374.9,529c-64.2,0-107.1-42.5-107.1-107.3c0-65.5,42.8-108.9,107.1-108.9c64.2,0,107.1,43.4,107.1,108.9
		C1482.1,486.5,1439.3,529,1374.9,529z M1374.9,373.7c-24.7,0-41.3,19.3-41.3,48s16.6,48,41.3,48s41.3-19.3,41.3-48
		C1416.4,393,1399.8,373.7,1374.9,373.7z"/>
	<path class="st0" d="M1570.1,313c66.6,0,110.9,43,110.9,108.4c0,64.7-44.3,107.6-110.9,107.6h-77.3c0,0,0-1.5,0-4V317.7
		c0-2.5,0-4.7,0-4.7L1570.1,313z M1573.9,473.2c24.2,0,40.5-20.7,40.5-51.8s-16.3-51.8-40.5-51.8h-16.3v103.6L1573.9,473.2
		L1573.9,473.2z"/>
</g>
</svg>
