<?xml version="1.0" encoding="utf-8"?>
<!-- Generator: Adobe Illustrator 19.2.1, SVG Export Plug-In . SVG Version: 6.00 Build 0)  -->
<svg version="1.1" id="Layer_1" xmlns="http://www.w3.org/2000/svg" xmlns:xlink="http://www.w3.org/1999/xlink" x="0px" y="0px"
	 viewBox="0 0 899 216" style="enable-background:new 0 0 899 216;" xml:space="preserve">
<style type="text/css">
	.st0{fill:#FFFFFF;}
</style>
<g>
	<path class="st0" d="M139.8,0.1c0,0.1,0,4.6,0,4.7c0,20.5,0,82,0,82h44v-82c0-2.5,0-4.5,0-4.7h67.8c0,0,0,2.2,0,4.7v211.3
		c0,0-1.9,0-4.7,0h-58.7c-2.5,0-4.4,0-4.4,0v-74h-44.1v74c0,0-1.9,0-4.7,0c-9.2,0-17.8,0-27,0v-18H90c0-5.8,0-12.3,0-18
		c-6,0-12,0-18,0v-9c0-60.1,0-92.9,0-153c6,0,12,0,18,0c0-6,0-12,0-18 M54,198.1H36v-18h18V198.1z M18,216.1H0v-18h18V216.1z
		 M63,18.1H45v-18h18V18.1z M81,216.1H63v-18h18V216.1z"/>
	<path class="st0" d="M367.9,216.1c-64.2,0-107.1-42.5-107.1-107.3c0-65.5,42.8-108.9,107.1-108.9C432.1-0.1,475,43.3,475,108.8
		C475.1,173.6,432.3,216.1,367.9,216.1z M367.9,60.8c-24.7,0-41.3,19.3-41.3,48s16.6,48,41.3,48c24.7,0,41.3-19.3,41.3-48
		C409.4,80.1,392.8,60.8,367.9,60.8z"/>
	<path class="st0" d="M592.9,216.1c-64.2,0-107.1-42.5-107.1-107.3c0-65.5,42.8-108.9,107.1-108.9C657.1-0.1,700,43.3,700,108.8
		C700.1,173.6,657.3,216.1,592.9,216.1z M592.9,60.8c-24.7,0-41.3,19.3-41.3,48s16.6,48,41.3,48s41.3-19.3,41.3-48
		C634.4,80.1,617.8,60.8,592.9,60.8z"/>
	<path class="st0" d="M788.1,0.1c66.6,0,110.9,43,110.9,108.4c0,64.7-44.3,107.6-110.9,107.6h-77.3c0,0,0-1.5,0-4V4.8
		c0-2.5,0-4.7,0-4.7H788.1z M791.9,160.3c24.2,0,40.5-20.7,40.5-51.8s-16.3-51.8-40.5-51.8h-16.3v103.6H791.9L791.9,160.3z"/>
</g>
</svg>
