<svg xmlns="http://www.w3.org/2000/svg" viewBox="0 0 857 857">
  <defs>
    <style>.icon-fill{fill:#231f20;stroke:#231f20;stroke-miterlimit:10;}</style>
  </defs>
  <g id="widget">
    <g id="widget-inner">
      <polygon class="icon-fill" points="359.18 425.65 400.07 384.76 432.69 352.14 432.79 352.04 432.8 352.04 473.58 311.25 399.6 237.28 285.2 351.67 359.18 425.65"/>
      <path class="icon-fill" d="M569.23,483.71a.41.41,0,0,0-.32.13L534,518.72,531.77,521a.43.43,0,0,0-.13.32.48.48,0,0,0,.13.32l105.3,105.29a.39.39,0,0,0,.32.14.43.43,0,0,0,.32-.14l37.13-37.14a.39.39,0,0,0,.14-.32.43.43,0,0,0-.14-.32L569.55,483.84A.45.45,0,0,0,569.23,483.71Z"/>
      <path class="icon-fill" d="M505.58,312.35a1,1,0,0,0,.71-.25l13.83-13.83a1,1,0,0,0,.29-.71,1,1,0,0,0-.29-.71L414,190.74a1,1,0,0,0-.71-.29,1,1,0,0,0-.7.29l-13.83,13.83a1,1,0,0,0,0,1.41L504.87,312.1A1,1,0,0,0,505.58,312.35Z"/>
      <path class="icon-fill" d="M491.53,630a15.22,15.22,0,0,0-15.2-15.2H215.22A15.22,15.22,0,0,0,200,630v16.56h291.5Z"/>
      <path class="icon-fill" d="M428.5.5C192.12.5.5,192.12.5,428.5s191.62,428,428,428,428-191.62,428-428S664.88.5,428.5.5Zm84.55,651.59a16,16,0,0,1-16,16H194.49a16,16,0,0,1-16-16V630a36.76,36.76,0,0,1,36.72-36.72h8.9V555.36a19.57,19.57,0,0,1,19.55-19.55H265.3a10.76,10.76,0,0,1,0,21.52H245.64v35.93H445.91V557.33H314.07a10.76,10.76,0,1,1,0-21.52H447.89a19.57,19.57,0,0,1,19.55,19.55v37.91h8.89A36.76,36.76,0,0,1,513.05,630Zm177-47.09-37.14,37.14a22,22,0,0,1-31.09,0L516.55,536.84a21.91,21.91,0,0,1-4.39-24.77L407.68,407.6l-33.27,33.27.84.85a22.56,22.56,0,0,1,0,31.86l-13.83,13.83a22.52,22.52,0,0,1-31.86,0L223.45,381.29a22.52,22.52,0,0,1,0-31.86l13.83-13.83a22.56,22.56,0,0,1,31.85,0l.85.85,114.4-114.4-.85-.85a22.52,22.52,0,0,1,0-31.85l13.83-13.83a22.51,22.51,0,0,1,31.85,0L535.34,281.64a22.51,22.51,0,0,1,0,31.85l-13.83,13.83a22.52,22.52,0,0,1-31.86,0l-.85-.85-33.27,33.28,12.29,12.3a10.76,10.76,0,0,1-15.22,15.22L440.3,375l-17.4,17.4L526.42,495.89l17.4-17.4-56.63-56.63a10.76,10.76,0,0,1,15.22-15.22L560,464.23a21.91,21.91,0,0,1,24.77,4.39l105.3,105.29a22,22,0,0,1,0,31.09Z"/>
      <path class="icon-fill" d="M253.21,350.53a1,1,0,0,0-.71.3l-13.83,13.83a1,1,0,0,0-.29.7,1,1,0,0,0,.29.71L344.78,472.19a1,1,0,0,0,.71.25,1,1,0,0,0,.71-.25L360,458.36a1,1,0,0,0,0-1.42L253.91,350.82A1,1,0,0,0,253.21,350.53Z"/>
    </g>
  </g>
</svg>