<svg xmlns="http://www.w3.org/2000/svg" viewBox="0 0 857 857">
  <g id="info-icon">
    <g id="info-icon-inner">
      <path class="icon-fill" d="M480.68,160.6c-31,0-56.17,23.8-56.17,53,0,28.36,24.64,41.28,47.54,41.28,32.55,0,56.18-22.31,56.18-53C528.23,173.52,503.58,160.6,480.68,160.6Z"/>
      <polygon class="icon-fill" points="332.7 702.04 418.73 702.04 492.2 333.96 406.91 333.96 332.7 702.04"/>
      <path class="icon-fill" d="M428.5.5C192.12.5.5,192.12.5,428.5s191.62,428,428,428,428-191.62,428-428S664.88.5,428.5.5Zm86.8,325L437.64,714.6a10.51,10.51,0,0,1-10.3,8.44H319.88a10.51,10.51,0,0,1-10.3-12.58L388,321.39A10.49,10.49,0,0,1,398.32,313H505a10.51,10.51,0,0,1,10.3,12.56Zm-43.25-49.6c-34.06,0-68.54-21.39-68.54-62.28,0-19.65,8.07-38.22,22.74-52.29a78.22,78.22,0,0,1,54.43-21.75c34.07,0,68.55,21.39,68.55,62.28C549.23,244.09,516.05,275.92,472.05,275.92Z"/>
    </g>
  </g>
</svg>