<svg xmlns="http://www.w3.org/2000/svg" viewBox="0 0 857 857">
  <g id="icon-pledge">
    <g id="icon-pledge-inner">
      <path class="icon-fill" d="M428.5.5C192.12.5.5,192.12.5,428.5s191.62,428,428,428,428-191.62,428-428S664.88.5,428.5.5Zm2.79,188.1A88.66,88.66,0,0,1,467,196.05a9.93,9.93,0,1,1-8,18.19,69.41,69.41,0,0,0-97.14,63.59c0,45.36,46.68,118.59,124.87,163.09,78.2-44.5,124.88-117.73,124.88-163.09a69.38,69.38,0,0,0-132.29-29.26,9.93,9.93,0,0,1-18-8.4,89.24,89.24,0,0,1,170.14,37.66c0,51.79-49.06,133.58-140,183.18a9.93,9.93,0,0,1-9.5,0h0c-90.92-49.6-140-131.4-140-183.18A89.33,89.33,0,0,1,431.29,188.6Zm117.57,41.06a10,10,0,0,1,12.68-6,57.26,57.26,0,0,1,35,35,9.93,9.93,0,1,1-18.72,6.62,38,38,0,0,0-22.91-22.92A10,10,0,0,1,548.86,229.66ZM272.69,474.08h63.44c15.19,0,31.89,12.52,49.56,25.77,13,9.75,29.09,21.81,37.66,21.81h47.58c19.33,0,29.69,9.72,30.81,10.83a9.93,9.93,0,0,1-14,14.1c-.53-.47-6.08-5.07-16.82-5.07H423.35c-15.21,0-31.9-12.52-49.57-25.78-13-9.73-29.08-21.8-37.65-21.8H272.69a9.93,9.93,0,0,1,0-19.86ZM250.9,642.61a25.82,25.82,0,0,1-25.79,25.79H177.53a9.93,9.93,0,1,1,0-19.86h47.58a5.94,5.94,0,0,0,5.93-5.93V468.15a5.94,5.94,0,0,0-5.93-5.93H177.53a9.93,9.93,0,1,1,0-19.86h47.58a25.82,25.82,0,0,1,25.79,25.79Zm-67.44-27.75a13.9,13.9,0,1,1,13.89,13.89A13.91,13.91,0,0,1,183.46,614.86Zm462.78-66.61a33.48,33.48,0,0,1-15.71,20.47L523.76,635.18c-1,.68-26.62,17.36-84.55,17.36-49.17,0-119.61-38.6-123.68-40.85-1.74-.76-16.29-6.73-42.85-6.73a9.93,9.93,0,1,1,0-19.86c33.66,0,51.29,8.61,52,9l.1,0c2.87,1.58,70.75,38.56,114.41,38.56,50.47,0,72.95-13.67,73.89-14.25l107.22-66.74a14,14,0,0,0,6.73-8.58,13.85,13.85,0,0,0-20.31-15.59l-.12.06-91.7,44.66c-17.85,8.93-34.54,8.93-67.78,8.93-32.57,0-80.46-8-80.94-8.07a9.93,9.93,0,1,1,3.27-19.58l.16,0c4.9.8,48.73,7.77,77.51,7.77,31.06,0,45.24,0,59-6.88L597.36,510a33.1,33.1,0,0,1,25-3.06,33.48,33.48,0,0,1,20.47,15.7h0A33.52,33.52,0,0,1,646.24,548.25Z"/>
    </g>
  </g>
</svg>